<?xml version="1.0" encoding="UTF-8"?>
<!DOCTYPE svg PUBLIC "-//W3C//DTD SVG 1.1//EN" "http://www.w3.org/Graphics/SVG/1.1/DTD/svg11.dtd">
<!-- Creator: CorelDRAW X6 -->
<svg xmlns="http://www.w3.org/2000/svg" xml:space="preserve" width="185px" height="64px" version="1.1" style="shape-rendering:geometricPrecision; text-rendering:geometricPrecision; image-rendering:optimizeQuality; fill-rule:evenodd; clip-rule:evenodd"
viewBox="0 0 29204 10101"
 xmlns:xlink="http://www.w3.org/1999/xlink">
 <defs>
  <style type="text/css">
   <![CDATA[
    .fil0 {fill:#1C1B17}
    .fil1 {fill:#1C1B17;fill-rule:nonzero}
   ]]>
  </style>
 </defs>
 <g id="__x0023_Layer_x0020_1">
  <metadata id="CorelCorpID_0Corel-Layer"/>
  <path class="fil0" d="M6651 4232l-2511 0 -815 2021 3049 0c1679,-196 1712,-1761 1092,-2250 -129,198 -418,248 -815,228z"/>
  <path class="fil0" d="M7029 3528l-2042 0 -3186 -13 750 -1924 4319 0c2814,-65 1966,2837 1216,3489 65,-1304 -660,-1571 -1057,-1552z"/>
  <polygon class="fil0" points="6456,6449 3587,6449 6456,9383 8126,8033 "/>
  <path class="fil1" d="M5184 0c1430,0 2726,565 3664,1478 870,846 1432,1992 1511,3264l-327 0c-78,-1181 -603,-2244 -1411,-3031 -879,-856 -2094,-1385 -3437,-1385 -1343,0 -2558,529 -3437,1385 -808,787 -1333,1850 -1411,3031l-327 0c79,-1272 641,-2417 1511,-3264 938,-913 2234,-1478 3664,-1478zm5184 5041l0 10c0,1395 -581,2658 -1520,3572 -938,913 -2234,1478 -3664,1478 -1430,0 -2726,-565 -3664,-1478 -939,-914 -1520,-2177 -1520,-3572l0 -10 326 0 0 10c0,1304 543,2485 1421,3339 879,856 2094,1385 3437,1385 1343,0 2558,-529 3437,-1385 878,-854 1421,-2035 1421,-3339l0 -10 326 0z"/>
  <path class="fil1" d="M11833 4283l429 0c106,0 204,-20 294,-59 90,-39 169,-92 235,-158 66,-67 118,-145 156,-235 37,-90 56,-188 56,-294 0,-95 -17,-187 -51,-273 -34,-87 -83,-164 -146,-230 -63,-67 -142,-120 -238,-161 -95,-41 -204,-61 -327,-61l-409 0 0 1472zm383 -1799c194,0 364,29 509,87 145,58 265,135 360,232 96,97 167,209 215,335 48,126 71,257 71,394 0,130 -20,252 -61,368 -41,116 -100,220 -176,312 -77,92 -170,167 -281,225 -111,58 -238,92 -381,102l1232 1451 -465 0 -1385 -1666 -20 0 0 1666 -343 0 0 -3506 726 0z"/>
  <polygon id="1" class="fil1" points="14092,5990 14092,2484 16014,2484 16014,2811 14435,2811 14435,4048 15840,4048 15840,4375 14435,4375 14435,5663 16014,5663 16014,5990 "/>
  <path id="2" class="fil1" d="M17015 5663l669 0c95,0 184,-15 266,-44 82,-29 153,-71 215,-125 61,-55 109,-120 143,-197 34,-77 51,-161 51,-253 0,-95 -16,-183 -48,-263 -33,-80 -79,-150 -141,-210 -61,-60 -134,-107 -217,-141 -83,-34 -176,-51 -278,-51l-659 0 0 1283zm0 -1610l588 0c126,0 232,-20 317,-59 85,-39 154,-90 207,-151 53,-61 90,-128 113,-199 22,-72 33,-140 33,-204 0,-85 -16,-165 -49,-240 -32,-75 -78,-141 -138,-199 -60,-58 -134,-104 -222,-138 -89,-34 -189,-51 -301,-51l-547 0 0 1242zm-342 -1569l894 0c164,0 311,24 442,72 131,48 243,113 335,197 92,84 163,181 212,291 49,111 74,229 74,355 0,164 -38,317 -113,460 -75,143 -199,254 -373,332l0 15c167,58 306,157 417,296 111,140 166,317 166,531 0,140 -25,268 -74,383 -50,116 -121,216 -215,302 -94,85 -209,152 -345,199 -136,48 -290,72 -460,72l-961 0 0 -3506z"/>
  <path id="3" class="fil1" d="M19453 4226c0,211 38,409 115,593 77,184 182,345 317,483 135,138 294,246 478,325 184,78 383,117 598,117 215,0 414,-39 598,-117 184,-78 343,-187 478,-325 135,-138 240,-299 317,-483 77,-184 115,-382 115,-593 0,-177 -33,-355 -100,-534 -66,-179 -164,-340 -291,-483 -128,-143 -285,-259 -473,-347 -187,-89 -402,-133 -644,-133 -242,0 -457,44 -644,133 -187,89 -345,204 -473,347 -128,143 -225,304 -291,483 -66,179 -100,357 -100,534zm-368 15c0,-296 58,-560 174,-790 116,-230 265,-422 447,-578 182,-155 384,-272 606,-353 221,-80 438,-120 649,-120 211,0 427,40 649,120 221,80 423,198 606,353 182,155 331,348 447,578 116,230 174,493 174,790 0,235 -46,463 -138,685 -92,221 -221,417 -388,585 -167,169 -365,304 -593,406 -228,102 -481,153 -756,153 -276,0 -528,-51 -756,-153 -228,-102 -426,-238 -593,-406 -167,-169 -297,-364 -389,-585 -92,-221 -138,-450 -138,-685z"/>
  <path id="4" class="fil1" d="M23470 4226c0,211 38,409 115,593 77,184 182,345 317,483 135,138 294,246 478,325 184,78 383,117 598,117 215,0 414,-39 598,-117 184,-78 343,-187 478,-325 135,-138 240,-299 317,-483 77,-184 115,-382 115,-593 0,-177 -33,-355 -100,-534 -66,-179 -164,-340 -291,-483 -128,-143 -285,-259 -473,-347 -187,-89 -402,-133 -644,-133 -242,0 -457,44 -644,133 -187,89 -345,204 -473,347 -128,143 -225,304 -291,483 -66,179 -100,357 -100,534zm-368 15c0,-296 58,-560 174,-790 116,-230 265,-422 447,-578 182,-155 384,-272 606,-353 221,-80 438,-120 649,-120 211,0 427,40 649,120 221,80 423,198 606,353 182,155 331,348 447,578 116,230 174,493 174,790 0,235 -46,463 -138,685 -92,221 -221,417 -388,585 -167,169 -365,304 -593,406 -228,102 -481,153 -756,153 -276,0 -528,-51 -756,-153 -228,-102 -426,-238 -593,-406 -167,-169 -297,-364 -389,-585 -92,-221 -138,-450 -138,-685z"/>
  <polygon id="5" class="fil1" points="28294,5990 27952,5990 27952,2811 27063,2811 27063,2484 29204,2484 29204,2811 28294,2811 "/>
  <polygon class="fil1" points="11674,6538 12047,7203 12054,7203 12385,6538 12529,6538 11876,7822 11725,7822 11983,7339 11528,6538 "/>
  <path id="1" class="fil1" d="M12651 7352c0,53 10,102 30,150 20,47 47,89 81,124 34,35 73,63 118,83 45,21 93,31 144,31 52,0 101,-10 146,-31 45,-21 84,-49 118,-84 34,-36 60,-77 79,-124 19,-47 29,-96 29,-149 0,-52 -10,-102 -29,-150 -19,-47 -46,-88 -79,-123 -34,-35 -73,-63 -119,-83 -46,-21 -94,-31 -145,-31 -51,0 -99,10 -144,31 -45,21 -84,48 -118,83 -34,35 -61,76 -81,122 -20,47 -30,97 -30,151zm-118 0c0,-69 13,-133 38,-193 26,-60 61,-112 106,-156 45,-44 97,-79 156,-105 59,-26 123,-39 190,-39 67,0 131,13 190,39 59,25 111,60 156,105 45,44 80,96 106,156 26,60 38,124 38,193 0,67 -13,131 -38,191 -26,60 -61,112 -105,157 -44,45 -96,80 -156,106 -60,26 -123,38 -191,38 -67,0 -131,-13 -191,-38 -60,-26 -112,-61 -156,-106 -44,-45 -79,-97 -105,-157 -25,-60 -38,-123 -38,-191z"/>
  <path id="2" class="fil1" d="M13768 6883l0 601c0,16 2,39 5,67 3,29 12,57 25,85 14,28 36,52 66,73 30,21 72,31 125,31 67,0 121,-14 160,-42 39,-28 69,-64 89,-107 20,-43 33,-90 38,-141 6,-51 8,-99 8,-144l0 -423 114 0 0 939 -114 0 0 -140 -4 0c-21,37 -46,67 -74,89 -28,22 -56,38 -85,50 -29,11 -56,18 -81,21 -26,2 -47,4 -65,4 -9,0 -23,-1 -42,-2 -19,-1 -41,-5 -65,-12 -24,-7 -49,-17 -74,-31 -25,-14 -48,-33 -69,-57 -21,-24 -38,-55 -51,-93 -13,-37 -20,-83 -20,-137l0 -631 114 0z"/>
  <path id="3" class="fil1" d="M15091 6986c-25,-9 -51,-13 -78,-13 -40,0 -78,10 -113,29 -36,19 -67,46 -95,80 -28,34 -50,73 -67,118 -16,45 -24,93 -24,144l0 479 -114 0 0 -939 108 0 0 198 6 0c25,-75 69,-133 133,-173 64,-41 137,-61 219,-61 10,0 20,0 29,1 10,1 19,2 29,3l-32 135z"/>
  <path id="4" class="fil1" d="M15712 7057c-21,-20 -43,-36 -64,-49 -22,-13 -42,-22 -62,-28 -19,-6 -38,-10 -55,-12 -17,-2 -32,-3 -45,-3 -34,0 -62,5 -86,14 -24,9 -43,21 -57,36 -14,14 -25,31 -32,50 -7,19 -10,37 -10,56 0,35 7,62 22,82 15,20 35,36 59,49 24,12 52,22 82,30 30,7 61,16 93,24 22,6 47,15 75,26 27,11 53,27 77,47 24,20 43,45 59,75 16,30 23,67 23,112 0,42 -8,81 -24,115 -16,34 -39,64 -68,88 -29,24 -64,43 -106,56 -41,13 -86,20 -135,20 -18,0 -37,-1 -60,-5 -23,-3 -47,-10 -73,-21 -26,-11 -53,-25 -81,-44 -28,-19 -56,-44 -83,-75l75 -80c10,13 22,26 36,40 14,14 31,27 50,39 19,12 40,21 65,29 24,7 51,11 79,11 56,0 105,-15 146,-44 41,-29 62,-71 62,-124 0,-34 -7,-61 -21,-83 -14,-22 -33,-40 -57,-53 -24,-14 -51,-25 -81,-34 -30,-9 -62,-18 -94,-28 -21,-6 -45,-15 -72,-25 -27,-11 -52,-26 -76,-46 -24,-20 -44,-45 -60,-76 -16,-30 -24,-68 -24,-113 0,-30 6,-60 18,-90 12,-30 30,-57 54,-81 24,-24 55,-44 92,-59 37,-15 81,-22 132,-22 46,0 94,7 144,22 50,15 100,45 150,90l-64 84z"/>
  <path id="5" class="fil1" d="M16376 7740c64,0 122,-15 176,-46 54,-30 97,-71 131,-122l133 0c-20,40 -45,77 -76,110 -30,34 -64,63 -102,87 -38,24 -78,43 -123,56 -44,13 -91,20 -139,20 -67,0 -131,-13 -191,-38 -60,-26 -112,-61 -156,-106 -44,-45 -79,-97 -105,-157 -25,-60 -38,-123 -38,-191 0,-69 12,-133 36,-193 24,-60 57,-112 99,-156 42,-44 92,-79 150,-105 57,-26 120,-39 187,-39 76,0 144,13 204,39 60,25 110,60 152,105 41,44 72,96 94,156 21,60 32,124 32,193l-834 0c0,53 10,102 30,150 20,47 47,89 81,124 34,35 73,63 118,83 45,21 93,31 144,31zm331 -492c-6,-41 -19,-78 -38,-113 -19,-34 -44,-64 -74,-89 -30,-25 -65,-45 -106,-59 -41,-14 -84,-21 -132,-21 -42,0 -82,7 -119,21 -37,14 -70,34 -98,59 -29,26 -54,55 -75,89 -21,34 -37,72 -49,113l690 0z"/>
  <polygon id="6" class="fil1" points="17125,7822 17011,7822 17011,6490 17125,6490 "/>
  <path id="7" class="fil1" d="M17802 6578c-14,-3 -27,-5 -38,-7 -12,-2 -25,-3 -38,-3 -47,0 -85,8 -112,24 -27,16 -48,36 -61,61 -13,24 -21,50 -24,79 -3,28 -5,53 -5,76l0 75 266 0 0 105 -266 0 0 834 -114 0 0 -834 -97 0 0 -105 97 0 0 -97c0,-15 1,-40 5,-75 3,-35 14,-71 33,-107 19,-37 48,-69 89,-97 41,-28 98,-42 171,-42 25,0 47,1 66,5 19,3 38,8 55,14l-26 96z"/>
 </g>
</svg>
